<svg xmlns="http://www.w3.org/2000/svg" viewBox="0 0 116.5 114">
<!-- SVG created with Arrow, by QuiverAI (https://quiver.ai) -->
  <style type="text/css">.cls-0 {fill:#FFFFFF;}
.cls-1 {fill:#FDC5D7;}
.cls-2 {fill:none;stroke:#E8627C;stroke-width:2.2696;stroke-linecap:round;stroke-miterlimit:10;}
.cls-3 {fill:#DF5B76;}
.cls-4 {fill:#020001;}</style>
  <path d="m89.3 0.6h-62.1c-15.6 0-25.9 10.3-25.9 25.4v62.1c0 15.6 10.3 25.4 25.9 25.4h62.1c15.9 0 25.9-8.8 26.2-24.6v-63.3c-0.2-15.6-10.3-25-26.2-25z"/>
  <path class="cls-0" d="m88.3 5.7h-59.9c-13.9 0-22.5 6.5-22.5 21.8v59.1c0 15.3 8.6 21.8 22.5 21.8h59.9c14.1 0 22.2-6.4 22.3-21.8v-59.1c0-15.3-8.2-21.8-22.3-21.8z"/>
  <path class="cls-1" d="m104.7 51-12.7-13c-1-0.9-2.8-0.5-2.9 0.9v5.2l-0.1 0.2c-9.3-1.1-13.8-1.2-18.9 2.1-3.8 2.4-5.4 6.1-10.5 6.1-5.5 0-7.6-3.8-9.8-7.8-2.7-5-7.7-10.7-15.2-11.7-7.7-0.6-13.2 3-18.1 8.5-3.1 3.4-5.3 6.1-10.8 5.4l-0.2 20.4c6.1 1.1 11.9-0.3 16.6-5.8 2.7-3.1 5.3-7.4 10.7-7.7 4.6-0.2 7.2 2.9 8.8 5.1 3.3 5 6.9 12.4 17.1 12.5 5.6 0 9.8-2.4 13.3-6 5-4.9 7.4-6.3 15-5.7l2.1 0.1 0.1 6.2c0.4 1.3 1.8 1.5 2.6 0.8l13.4-12.8c0.7-0.7 0.6-2.2-0.5-3z"/>
  <path class="cls-4" d="m58.7 73.5c-9.7 0-14.2-5.6-17-9.9l-1.7-2.7c-1.8-2.4-3.9-5-7.2-5-3.6 0.2-5.8 2.3-8.3 5.3-4.2 5.3-9.1 8.6-16.4 8.3l-2.8-0.2 0.1-24.3 1.8-0.1c3.8 0.2 5.3-1 7.5-3.4 4.1-4.8 9.8-10.7 19-10.6 8.8 0 14.8 5.2 18.3 11.8l0.6 1.1c1.9 3.6 3.5 6 7.1 6.7 2.1 0.1 3.7-0.8 5.9-2.7 3.4-2.9 6.5-5.2 10.7-6 1.9-0.3 5.3-0.8 11 0l-0.1-3.8c0-2.4 3.3-4.5 5.6-2.2l14.4 14.1c1.3 1 1.3 3.6-0.2 4.7l-14.4 13.4c-2.1 1.7-5.4 0.5-5.5-2.1v-4.2h-1.2c-5.2-0.3-7.5 0.3-11.7 4.3-3.3 3.5-7.9 7.5-15.5 7.5zm-52.8-8.1c6.4 1 11-1.3 15.6-7.2 2.6-3.2 5.9-6.2 11.3-6.4 4.9 0 8.1 2.9 10.2 6.2l1.9 3.1c2.2 3.4 5.7 8.4 13.7 8.4 4.8 0 8.1-1.8 12.4-5.9 4.9-5.2 8.4-6.2 14.9-5.9l2.4 0.1h0.7c1.4-0.2 2 1.2 2 2.1v3.5l0.3 0.3 12.3-11.4v-0.3l-12.3-11.6h-0.4v3.8c-0.3 1.3-1.4 2.3-2.6 2-8-0.8-11.9-1.3-17 1.8-4 2.6-5.7 6.6-11.9 6.6-6.1 0-8.3-4.2-10.3-8l-0.6-1.1c-2.8-4.9-7.2-10-14.5-10.8-7.3-0.5-12.1 3.5-16.6 8.3-3 3.3-6.2 6.4-11.6 5.9l0.1 16.5z"/>
  <path class="cls-2" d="m6.1 57.4c6.2 0.5 9.8-1.6 13.4-5.4 3-3.4 7.4-8.9 13.7-8.9s9.2 3.9 10.9 5.9c3.4 4.8 6.8 12.7 13.8 13.5 8 0.8 11.5-5.5 16.7-8.7 5.1-3 8.3-2.5 12.3-1.8l2.7 0.1h0.1-0.2 0.1-0.1 0.5"/>
  <path class="cls-3" d="m96.6 50.2 2.5 1.1c0.6 0.3 0.8 1.2 0 1.6l-2.1 0.9c-0.6 0.1-1.2-0.1-1.2-0.8v-2.1c0-0.5 0.5-0.8 0.8-0.7z"/>
</svg>